<svg width="90" height="90" viewBox="0 0 90 90" fill="none" xmlns="http://www.w3.org/2000/svg">
<mask id="mask0" mask-type="alpha" maskUnits="userSpaceOnUse" x="0" y="0" width="90" height="90">
<path fill-rule="evenodd" clip-rule="evenodd" d="M45 90C69.8528 90 90 69.8528 90 45C90 20.1472 69.8528 0 45 0C20.1472 0 0 20.1472 0 45C0 69.8528 20.1472 90 45 90ZM44.7364 77.3686C62.4676 77.3686 76.8417 62.9946 76.8417 45.2633C76.8417 27.5321 62.4676 13.1581 44.7364 13.1581C27.0051 13.1581 12.6311 27.5321 12.6311 45.2633C12.6311 62.9946 27.0051 77.3686 44.7364 77.3686Z" fill="#C4C4C4"/>
</mask>
<g mask="url(#mask0)">
<rect width="90" height="90" fill="#00AEEF"/>
<path d="M88.4225 87.8948L44.7383 45.7896H91.0541L88.4225 87.8948Z" fill="#ED3431"/>
<path d="M0.526714 87.8948L44.2109 45.7896H-2.10487L0.526714 87.8948Z" fill="#003E6B"/>
<path d="M7.89473 -6.84242L50 36.8418L50 -9.474L7.89473 -6.84242Z" fill="#84BE60"/>
<path d="M94.2107 94.7365L52.1055 51.0522L52.1055 97.368L94.2107 94.7365Z" fill="#84BE60"/>
</g>
</svg>
