<svg width="90" height="90" viewBox="0 0 90 90" fill="none" xmlns="http://www.w3.org/2000/svg">
<g clip-path="url(#clip0)">
<path d="M80.2261 12.0222C79.8297 12.0222 79.4336 11.8726 79.1317 11.5747C78.5264 10.9773 78.5264 10.0104 79.1317 9.41457L82.5001 6.09187C83.1037 5.49607 84.0836 5.49607 84.6888 6.09187C85.2924 6.68927 85.2924 7.65619 84.6888 8.25198L81.3204 11.5747C81.0186 11.8726 80.6224 12.0222 80.2261 12.0222Z" fill="#E6F2DF"/>
<path d="M7.28273 84.0144C6.88638 84.0144 6.49021 83.8648 6.18836 83.5669C5.58305 82.9695 5.58305 82.0026 6.18836 81.4068L9.55671 78.0841C10.1604 77.4883 11.1403 77.4883 11.7454 78.0841C12.3491 78.6815 12.3491 79.6484 11.7454 80.2442L8.37709 83.5669C8.07525 83.8646 7.6789 84.0144 7.28273 84.0144Z" fill="#E6F2DF"/>
<path d="M90.3258 21.9146H84.8291C83.9731 21.9146 83.2812 21.2302 83.2812 20.387C83.2812 19.5438 83.9731 18.8594 84.8291 18.8594H90.3258C91.1818 18.8594 91.8736 19.5438 91.8736 20.387C91.8738 21.2302 91.1818 21.9146 90.3258 21.9146Z" fill="#E6F2DF"/>
<path d="M70.2111 7.48005C69.3567 7.48005 68.6632 6.79725 68.6632 5.95243L68.6602 0.52762C68.6602 -0.315588 69.352 -1 70.2066 -1H70.2082C71.0626 -1 71.7561 -0.317199 71.7561 0.526188L71.7591 5.95243C71.7591 6.79564 71.0673 7.48005 70.2127 7.48005H70.2111Z" fill="#E6F2DF"/>
<path d="M6.04452 70.8004H0.547853C-0.308155 70.8004 -1 70.1159 -1 69.2727C-1 68.4295 -0.308155 67.7451 0.547853 67.7451H6.04452C6.90052 67.7451 7.59237 68.4295 7.59237 69.2727C7.59237 70.1159 6.90052 70.8004 6.04452 70.8004Z" fill="#E6F2DF"/>
<path d="M20.667 90.6602C19.811 90.6602 19.1191 89.9758 19.1191 89.1326V83.7078C19.1191 82.863 19.811 82.1802 20.667 82.1802C21.523 82.1802 22.2149 82.863 22.2149 83.7078V89.1326C22.215 89.9758 21.523 90.6602 20.667 90.6602Z" fill="#E6F2DF"/>
<path d="M71.2506 51.8943C70.8542 51.8943 70.4581 51.7446 70.1562 51.4467L65.6688 47.0164C65.0635 46.4206 65.0635 45.4521 65.6688 44.8563C66.2725 44.2589 67.2524 44.2589 67.8576 44.8563L72.3449 49.2866C72.9502 49.884 72.9502 50.8509 72.3449 51.4467C72.0431 51.7446 71.6469 51.8943 71.2506 51.8943Z" fill="#E6F2DF"/>
<path d="M84.7151 38.6047C84.3187 38.6047 83.9226 38.455 83.6207 38.1571L79.1317 33.7268C78.5264 33.131 78.5264 32.1639 79.1317 31.5667C79.7354 30.9693 80.7153 30.9693 81.3204 31.5667L85.8094 35.997C86.4148 36.5928 86.4148 37.5599 85.8094 38.1571C85.5076 38.4549 85.1114 38.6047 84.7151 38.6047Z" fill="#E6F2DF"/>
<path d="M57.782 12.0237C57.3857 12.0237 56.9895 11.874 56.6876 11.5761L52.2001 7.14577C51.5948 6.54997 51.5948 5.58145 52.2001 4.98565C52.8038 4.38825 53.7837 4.38825 54.3888 4.98565L58.8762 9.41598C59.4815 10.0134 59.4815 10.9803 58.8762 11.5761C58.5745 11.874 58.1782 12.0237 57.782 12.0237Z" fill="#E6F2DF"/>
<path d="M63.3943 57.4343C62.998 57.4343 62.6018 57.2847 62.2999 56.9868L58.9332 53.6641C58.3295 53.0683 58.3295 52.1012 58.9332 51.504C59.5386 50.9082 60.5183 50.9082 61.122 51.504L64.4887 54.8267C65.094 55.4241 65.094 56.3896 64.4887 56.9868C64.1868 57.2845 63.7905 57.4343 63.3943 57.4343Z" fill="#E6F2DF"/>
<path d="M57.7818 65.1872C57.3855 65.1872 56.9893 65.0376 56.6875 64.7397L52.2001 60.3093C51.5948 59.7119 51.5948 58.745 52.2001 58.1492C52.8038 57.5518 53.7837 57.5518 54.3888 58.1492L58.8762 62.5796C59.4815 63.177 59.4815 64.1439 58.8762 64.7397C58.5744 65.0376 58.178 65.1872 57.7818 65.1872Z" fill="#E6F2DF"/>
<path d="M49.9272 70.7241C49.5308 70.7241 49.1347 70.5745 48.8328 70.2766L45.4645 66.9539C44.8608 66.3581 44.8608 65.3896 45.4645 64.7938C46.0698 64.1964 47.0495 64.1964 47.6532 64.7938L51.0216 68.1165C51.6269 68.7123 51.6269 69.6793 51.0216 70.2766C50.7197 70.5745 50.3234 70.7241 49.9272 70.7241Z" fill="#E6F2DF"/>
<path d="M24.115 45.2498C23.7187 45.2498 23.3225 45.1001 23.0206 44.8022L19.6539 41.4795C19.0503 40.8837 19.0503 39.9166 19.6539 39.3194C20.2593 38.7236 21.239 38.7236 21.8427 39.3194L25.2094 42.6421C25.8147 43.2395 25.8147 44.205 25.2094 44.8022C24.9075 45.1001 24.5112 45.2498 24.115 45.2498Z" fill="#E6F2DF"/>
<path d="M44.3186 78.4768C43.9223 78.4768 43.5261 78.3271 43.2242 78.0292L38.7352 73.5989C38.1299 73.0031 38.1299 72.036 38.7352 71.4388C39.3389 70.8414 40.3188 70.8414 40.924 71.4388L45.413 75.8691C46.0183 76.4649 46.0183 77.432 45.413 78.0292C45.1113 78.3271 44.715 78.4768 44.3186 78.4768Z" fill="#E6F2DF"/>
<path d="M36.4607 84.0144C36.0644 84.0144 35.6682 83.8648 35.3663 83.5669L31.9996 80.2442C31.396 79.6484 31.396 78.6813 31.9996 78.0841C32.605 77.4883 33.5847 77.4883 34.1884 78.0841L37.5551 81.4068C38.1604 82.0042 38.1604 82.9696 37.5551 83.5669C37.2532 83.8646 36.8571 84.0144 36.4607 84.0144Z" fill="#E6F2DF"/>
<path d="M44.3186 25.3142C43.9223 25.3142 43.5261 25.1645 43.2242 24.8666L38.7352 20.4363C38.1299 19.8405 38.1299 18.8734 38.7352 18.2762C39.3389 17.6788 40.3188 17.6788 40.924 18.2762L45.413 22.7065C46.0183 23.3023 46.0183 24.2694 45.413 24.8666C45.1113 25.1645 44.715 25.3142 44.3186 25.3142Z" fill="#E6F2DF"/>
<path d="M37.5798 31.9595C37.1835 31.9595 36.7873 31.8098 36.4855 31.5119L33.1188 28.1892C32.5151 27.5918 32.5151 26.6249 33.1188 26.0291C33.7241 25.4317 34.7038 25.4317 35.3075 26.0291L38.6742 29.3518C39.2795 29.9492 39.2795 30.9161 38.6742 31.5119C38.3724 31.8098 37.9762 31.9595 37.5798 31.9595Z" fill="#E6F2DF"/>
<path d="M17.3811 51.8943C16.9848 51.8943 16.5886 51.7446 16.2867 51.4467L11.7977 47.0164C11.1924 46.4206 11.1924 45.4535 11.7977 44.8563C12.4014 44.2589 13.3813 44.2589 13.9865 44.8563L18.4755 49.2866C19.0808 49.8824 19.0808 50.8495 18.4755 51.4467C18.1736 51.7446 17.7775 51.8943 17.3811 51.8943Z" fill="#E6F2DF"/>
<path d="M10.6498 58.5406C10.2535 58.5406 9.85733 58.3909 9.55548 58.093L6.18714 54.7703C5.58345 54.1745 5.58345 53.206 6.18714 52.6102C6.79246 52.0128 7.77218 52.0128 8.37586 52.6102L11.7442 55.9329C12.3495 56.5287 12.3495 57.4958 11.7442 58.093C11.4425 58.3909 11.0462 58.5406 10.6498 58.5406Z" fill="#E6F2DF"/>
<path d="M30.8479 38.6047C30.4516 38.6047 30.0554 38.455 29.7535 38.1571L25.2645 33.7268C24.6592 33.131 24.6592 32.1639 25.2645 31.5667C25.8682 30.9693 26.8481 30.9693 27.4533 31.5667L31.9423 35.997C32.5476 36.5928 32.5476 37.5599 31.9423 38.1571C31.6404 38.4549 31.2441 38.6047 30.8479 38.6047Z" fill="#E6F2DF"/>
<path d="M51.0505 18.6687C50.6542 18.6687 50.258 18.5191 49.9562 18.2212L46.5895 14.8985C45.9858 14.3027 45.9858 13.3356 46.5895 12.7384C47.1948 12.1426 48.1745 12.1426 48.7782 12.7384L52.1449 16.0611C52.7502 16.6585 52.7502 17.6239 52.1449 18.2212C51.8431 18.5191 51.4469 18.6687 51.0505 18.6687Z" fill="#E6F2DF"/>
<path d="M76.8591 44.1419C76.4628 44.1419 76.0666 43.9922 75.7648 43.6943L72.3981 40.3716C71.7944 39.7758 71.7944 38.8087 72.3981 38.2115C73.0034 37.6157 73.9831 37.6157 74.5868 38.2115L77.9535 41.5342C78.5588 42.1316 78.5588 43.0971 77.9535 43.6943C77.6517 43.9922 77.2553 44.1419 76.8591 44.1419Z" fill="#E6F2DF"/>
<path d="M10.6495 79.1649C4.45015 73.0482 4.45015 63.1303 10.6495 57.0136L57.782 10.4958C63.9814 4.37902 74.0289 4.37902 80.2267 10.4958C86.426 16.6125 86.426 26.5303 80.2267 32.6471L33.0944 79.1649C26.895 85.2818 16.8475 85.2818 10.6495 79.1649Z" fill="#84BE60"/>
<path d="M52.2077 35.2964C51.7976 35.2964 51.3842 35.139 51.0762 34.8351C48.7822 32.5695 51.2124 28.1087 54.4429 24.9205C55.0482 24.3247 56.0279 24.3247 56.6316 24.9205C57.2369 25.5179 57.2369 26.4848 56.6316 27.0822C53.8051 29.8718 53.1071 32.2533 53.3066 32.7301C53.9103 33.3275 53.8902 34.267 53.2834 34.8628C52.9893 35.1543 52.5992 35.2964 52.2077 35.2964Z" fill="#E6F2DF"/>
<path d="M72.6611 27.1294C69.559 27.1294 65.5144 24.7172 62.2977 21.5442C61.6924 20.9484 61.6924 19.9799 62.2977 19.3841C62.9014 18.7867 63.8813 18.7867 64.4865 19.3841C68.8608 23.6982 72.7507 24.5767 73.5202 23.8144C74.1239 23.217 75.1037 23.217 75.7089 23.8144C76.3126 24.4118 76.3126 25.3787 75.7089 25.9745C74.8979 26.775 73.8483 27.1294 72.6611 27.1294Z" fill="#E6F2DF"/>
<path d="M35.3019 45.9623C35.3035 45.9639 35.305 45.9639 35.305 45.9639C35.305 45.9639 35.3034 45.9639 35.3019 45.9623ZM34.5108 48.6817C34.0109 48.6817 33.5264 48.5304 33.1161 48.1256C32.5108 47.5282 32.5108 46.5627 33.1161 45.9655C33.5293 45.5561 34.1176 45.4293 34.6438 45.579C35.3776 45.2933 37.3588 43.9918 39.8495 41.5352C40.4532 40.9378 41.4331 40.9378 42.0382 41.5336C42.6419 42.131 42.6419 43.0979 42.0382 43.6953C40.4686 45.2444 38.8589 46.5873 37.5059 47.4793C36.9272 47.8598 35.6765 48.6817 34.5108 48.6817Z" fill="#E6F2DF"/>
<path d="M47.6555 51.5045L47.6571 51.5061L47.6555 51.5045ZM46.5595 54.1124C46.1631 54.1124 45.7653 53.9627 45.4635 53.6632C44.8582 53.0644 43.2485 51.4741 51.0762 43.7501C51.6816 43.1543 52.6598 43.1543 53.265 43.7501C53.8703 44.3475 53.8703 45.3144 53.265 45.9102C50.0963 49.0374 48.4201 51.4159 48.0671 52.2364C48.1846 52.7344 48.0455 53.2783 47.6538 53.6648C47.352 53.9625 46.9558 54.1124 46.5595 54.1124Z" fill="#E6F2DF"/>
<path d="M23.8349 63.8872C21.4511 63.8872 18.6431 62.6359 16.2841 60.3093C15.6787 59.7119 15.6787 58.745 16.2841 58.1492C16.8894 57.5518 17.8691 57.5518 18.4728 58.1492C21.0579 60.7005 24.1893 61.4214 25.2619 60.3643C25.8656 59.7669 26.8455 59.7669 27.4506 60.3643C28.0559 60.9601 28.0559 61.9272 27.4506 62.5244C26.5173 63.4442 25.2512 63.8872 23.8349 63.8872Z" fill="#E6F2DF"/>
<path d="M21.8683 80.6917C21.4719 80.6917 21.0757 80.542 20.7739 80.2441C17.5449 77.0573 15.1132 72.5965 17.4041 70.331C18.0094 69.7335 18.9908 69.7352 19.5945 70.3293C20.1873 70.9144 20.1998 71.857 19.6286 72.4558C19.4582 72.9798 20.1749 75.3324 22.9628 78.0838C23.5681 78.6812 23.5681 79.6467 22.9628 80.2439C22.6608 80.542 22.2646 80.6917 21.8683 80.6917Z" fill="#E6F2DF"/>
</g>
<defs>
<clipPath id="clip0">
<rect width="90" height="90" fill="white"/>
</clipPath>
</defs>
</svg>
