<svg width="90" height="90" viewBox="0 0 90 90" fill="none" xmlns="http://www.w3.org/2000/svg">
<path d="M15.8396 59.1003C18.5026 58.4994 21.1657 60.182 21.7709 62.826C22.3762 65.4701 20.6815 68.1141 18.0184 68.8352C15.3554 69.4361 12.6923 67.7536 12.0871 65.1095C11.6029 62.4655 13.1765 59.8214 15.8396 59.1003Z" fill="#82BF4A"/>
<path d="M71.7595 19.6032C74.4225 19.0023 77.0856 20.6849 77.6908 23.329C78.2961 25.973 76.6014 28.6171 73.9384 29.218C71.2753 29.8189 68.6123 28.1363 68.007 25.4923C67.5228 22.8482 69.0964 20.2042 71.7595 19.6032Z" fill="#7AB042"/>
<path d="M27.3008 22.4917C27.3008 22.4917 29.0562 25.8885 36.9059 29.846C44.7555 33.8035 53.8969 38.5195 58.3351 40.96C62.7402 43.3675 62.5415 45.2473 62.5415 45.2473V51.8761C62.5415 51.8761 62.7734 49.9963 58.3351 47.5888C53.9301 45.1813 44.7555 40.4323 36.9059 36.4748C29.0562 32.5173 27.3008 29.1535 27.3008 29.1535V22.4917Z" fill="#D9CCB6"/>
<path d="M27.3008 38.124C27.3008 38.124 29.0562 41.5209 36.9059 45.4784C44.7555 49.4359 53.8969 54.1519 58.3351 56.5923C62.7402 58.9998 62.5415 60.8796 62.5415 60.8796V67.5084C62.5415 67.5084 62.7734 65.6286 58.3351 63.2211C53.8969 60.8136 44.7555 56.0647 36.9059 52.1072C29.0562 48.1497 27.3008 44.7528 27.3008 44.7528V38.124Z" fill="#D9CCB6"/>
<path d="M60.6887 19.6228H39.7231C39.3919 19.6228 39.127 19.359 39.127 19.0292C39.127 18.6994 39.3919 18.4355 39.7231 18.4355H60.6887C61.0199 18.4355 61.2849 18.6994 61.2849 19.0292C61.2849 19.326 61.0199 19.6228 60.6887 19.6228Z" fill="#99B2C4"/>
<path d="M53.4 25.3611H31.0102C30.679 25.3611 30.4141 25.0972 30.4141 24.7675C30.4141 24.4377 30.679 24.1738 31.0102 24.1738H53.4C53.7312 24.1738 53.9962 24.4377 53.9962 24.7675C53.9962 25.0643 53.7312 25.3611 53.4 25.3611Z" fill="#99B2C4"/>
<path d="M54.0292 42.5432H28.5923C28.2611 42.5432 27.9961 42.2794 27.9961 41.9496C27.9961 41.6198 28.2611 41.356 28.5923 41.356H54.0292C54.3604 41.356 54.6254 41.6198 54.6254 41.9496C54.6585 42.2794 54.3935 42.5432 54.0292 42.5432Z" fill="#99B2C4"/>
<path d="M61.1847 48.2815H36.2446C35.9134 48.2815 35.6484 48.0177 35.6484 47.6879C35.6484 47.3581 35.9134 47.0942 36.2446 47.0942H61.1847C61.5159 47.0942 61.7809 47.3581 61.7809 47.6879C61.814 48.0177 61.5491 48.2815 61.1847 48.2815Z" fill="#99B2C4"/>
<path d="M59.6612 66.5847H36.2446C35.9134 66.5847 35.6484 66.3209 35.6484 65.9911C35.6484 65.6613 35.9134 65.3975 36.2446 65.3975H59.6612C59.9924 65.3975 60.2573 65.6613 60.2573 65.9911C60.2905 66.3209 60.0255 66.5847 59.6612 66.5847Z" fill="#99B2C4"/>
<path d="M51.9424 71.9602H28.5259C28.1947 71.9602 27.9297 71.6964 27.9297 71.3666C27.9297 71.0368 28.1947 70.7729 28.5259 70.7729H51.9424C52.2736 70.7729 52.5386 71.0368 52.5386 71.3666C52.5386 71.6964 52.2736 71.9602 51.9424 71.9602Z" fill="#99B2C4"/>
<path d="M42.571 31.0662H32.436C32.1048 31.0662 31.8398 30.8023 31.8398 30.4725C31.8398 30.1427 32.1048 29.8789 32.436 29.8789H42.571C42.9023 29.8789 43.1672 30.1427 43.1672 30.4725C43.2003 30.8023 42.9023 31.0662 42.571 31.0662Z" fill="#99B2C4"/>
<path d="M45.8514 36.8044H33.7622C33.431 36.8044 33.166 36.5406 33.166 36.2108C33.166 35.881 33.431 35.6172 33.7622 35.6172H45.8514C46.1826 35.6172 46.4475 35.881 46.4475 36.2108C46.4475 36.5406 46.1826 36.8044 45.8514 36.8044Z" fill="#99B2C4"/>
<path d="M57.6072 54.0198H45.5181C45.1868 54.0198 44.9219 53.7559 44.9219 53.4261C44.9219 53.0964 45.1868 52.8325 45.5181 52.8325H57.6072C57.9384 52.8325 58.2034 53.0964 58.2034 53.4261C58.2034 53.7559 57.9384 54.0198 57.6072 54.0198Z" fill="#99B2C4"/>
<path d="M58.1033 61.2092H46.0141C45.6829 61.2092 45.418 60.9454 45.418 60.6156C45.418 60.2858 45.6829 60.022 46.0141 60.022H58.1033C58.4345 60.022 58.6995 60.2858 58.6995 60.6156C58.6995 60.9454 58.4345 61.2092 58.1033 61.2092Z" fill="#99B2C4"/>
<path d="M62.5085 0C62.5085 0 60.7531 3.39685 52.9034 7.35434C45.0538 11.3118 35.9124 16.0608 31.5073 18.4683C27.1022 20.8758 27.3009 22.7556 27.3009 22.7556V29.3844C27.3009 29.3844 27.0691 27.5046 31.5073 25.0971C35.9124 22.6896 45.0869 17.9406 52.9365 13.9831C60.7862 10.0256 62.5416 6.6288 62.5416 6.6288V0H62.5085Z" fill="#EDE8D9"/>
<path d="M62.5085 15.5991C62.5085 15.5991 60.7531 18.996 52.9034 22.9535C45.0538 26.911 35.9124 31.6599 31.5073 34.0674C27.1022 36.4749 27.3009 38.3547 27.3009 38.3547V44.9835C27.3009 44.9835 27.0691 43.1037 31.5073 40.6962C35.9124 38.2887 45.0869 33.5398 52.9365 29.5823C60.7862 25.6248 62.5416 22.2279 62.5416 22.2279V15.5991H62.5085Z" fill="#EDE8D9"/>
<path d="M62.5085 45.0161C62.5085 45.0161 60.7531 48.413 52.9034 52.3705C45.0538 56.3279 35.9124 61.044 31.5073 63.4844C27.1022 65.9249 27.3009 67.7717 27.3009 67.7717V74.4005C27.3009 74.4005 27.0691 72.5207 31.5073 70.1132C35.9124 67.7057 45.0869 62.9567 52.9365 58.9993C60.7862 55.0418 62.5416 51.6449 62.5416 51.6449V45.0161H62.5085Z" fill="#EDE8D9"/>
<path d="M62.5085 60.6157C62.5085 60.6157 60.7531 64.0126 52.9034 67.9701C45.0538 71.9276 35.9124 76.6765 31.5073 79.084C27.1022 81.4915 27.3009 83.3713 27.3009 83.3713V90.0001C27.3009 90.0001 27.0691 88.1203 31.5073 85.7128C35.9124 83.3053 45.0869 78.5564 52.9365 74.5989C60.7862 70.6414 62.5416 67.2445 62.5416 67.2445V60.6157H62.5085Z" fill="#EDE8D9"/>
</svg>
