<svg width="90" height="90" viewBox="0 0 90 90" fill="none" xmlns="http://www.w3.org/2000/svg">
<path d="M73.1133 20.9839C73.1133 20.9839 87.3738 21.9987 87.3738 28.0197C87.3738 33.5671 76.1133 33.3191 76.1133 33.3191" stroke="#99DFF9" stroke-width="3" stroke-miterlimit="10"/>
<path d="M15.2605 32.8906C15.2605 32.8906 3 33.9054 3 39.9264C3 45.4739 14.2605 45.2258 14.2605 45.2258" stroke="#99DFF9" stroke-width="3" stroke-miterlimit="10"/>
<path d="M73.1133 45.1802C73.1133 45.1802 87.3738 46.195 87.3738 52.216C87.3738 57.7634 76.1133 57.5154 76.1133 57.5154" stroke="#99DFF9" stroke-width="3" stroke-miterlimit="10"/>
<path d="M16.2605 57.0645C16.2605 57.0645 3 58.0792 3 64.1002C3 69.6477 14.2605 69.3996 14.2605 69.3996" stroke="#99DFF9" stroke-width="3" stroke-miterlimit="10"/>
<path d="M70.6757 18.9091C70.6757 18.9091 60.5707 17.3306 43.2607 17.3306C25.9508 17.3306 14.2598 18.9091 14.2598 18.9091V24.2536C14.2598 24.2536 26.6078 22.6751 43.2607 22.6751C59.9136 22.6751 70.6757 24.2536 70.6757 24.2536V25.7419L76.1134 21.4573V20.2847L70.6757 18.9091Z" fill="#0098D0"/>
<path d="M76.1134 20.2846L70.6757 16V17.7589C70.6757 17.7589 60.5707 16.1804 43.2607 16.1804C25.9508 16.1804 14.2598 17.7589 14.2598 17.7589V23.1034C14.2598 23.1034 26.6078 21.5249 43.2607 21.5249C59.9136 21.5249 70.6757 23.1034 70.6757 23.1034V24.5918L76.1134 20.2846Z" fill="#99DFF9"/>
<path d="M70.6757 67.1669C70.6757 67.1669 60.5707 65.5884 43.2607 65.5884C25.9508 65.5884 14.2598 67.1669 14.2598 67.1669V72.5114C14.2598 72.5114 26.6078 70.9329 43.2607 70.9329C59.9136 70.9329 70.6757 72.5114 70.6757 72.5114V73.9998L76.1134 69.7151V68.5425L70.6757 67.1669Z" fill="#0098D0"/>
<path d="M76.1134 68.5429L70.6757 64.2583V66.0172C70.6757 66.0172 60.5707 64.4387 43.2607 64.4387C25.9508 64.4387 14.2598 66.0172 14.2598 66.0172V71.3617C14.2598 71.3617 26.6078 69.7832 43.2607 69.7832C59.9136 69.7832 70.6757 71.3617 70.6757 71.3617V72.8501L76.1134 68.5429Z" fill="#99DFF9"/>
<path d="M47.1124 29.3726C29.8025 29.3726 19.6974 30.9511 19.6974 30.9511L14.2598 32.3267V33.4768L19.6974 37.7614V36.273C19.6974 36.273 30.4595 34.6945 47.1124 34.6945C63.7653 34.6945 76.1134 36.273 76.1134 36.273V30.9511C76.1134 30.9511 64.445 29.3726 47.1124 29.3726Z" fill="#0098D0"/>
<path d="M47.1124 28.2229C29.8025 28.2229 19.6974 29.8014 19.6974 29.8014V28.0425L14.2598 32.3271L19.6974 36.6117V35.1234C19.6974 35.1234 30.4595 33.5448 47.1124 33.5448C63.7653 33.5448 76.1134 35.1234 76.1134 35.1234V29.8014C76.1134 29.8014 64.445 28.2229 47.1124 28.2229Z" fill="#99DFF9"/>
<path d="M14.2605 20.2847C14.2605 20.2847 3 21.2994 3 27.3205" stroke="#99DFF9" stroke-width="3" stroke-miterlimit="10" stroke-linecap="round"/>
<path d="M70.6757 43.1059C70.6757 43.1059 60.5707 41.5273 43.2607 41.5273C25.9508 41.5273 14.2598 43.1059 14.2598 43.1059V48.4504C14.2598 48.4504 26.6078 46.8718 43.2607 46.8718C59.9136 46.8718 70.6757 48.4504 70.6757 48.4504V49.9387L76.1134 45.6541V44.504L70.6757 43.1059Z" fill="#00AEEF"/>
<path d="M76.1134 44.4814L70.6757 40.1968V41.9557C70.6757 41.9557 60.5707 40.3772 43.2607 40.3772C25.9508 40.3772 14.2598 41.9557 14.2598 41.9557V47.3002C14.2598 47.3002 26.6078 45.7217 43.2607 45.7217C59.9136 45.7217 70.6757 47.3002 70.6757 47.3002V48.7886L76.1134 44.4814Z" fill="#99DFF9"/>
<path d="M47.1124 53.5469C29.8025 53.5469 19.6974 55.1254 19.6974 55.1254L14.2598 56.501V57.6511L19.6974 61.9357V60.4474C19.6974 60.4474 30.4595 58.8688 47.1124 58.8688C63.7653 58.8688 76.1134 60.4474 76.1134 60.4474V55.1029C76.1134 55.1254 64.445 53.5469 47.1124 53.5469Z" fill="#00AEEF"/>
<path d="M47.1124 52.3967C29.8025 52.3967 19.6974 53.9753 19.6974 53.9753V52.2163L14.2598 56.5009L19.6974 60.7855V59.2972C19.6974 59.2972 30.4595 57.7187 47.1124 57.7187C63.7653 57.7187 76.1134 59.2972 76.1134 59.2972V53.9527C76.1134 53.9753 64.445 52.3967 47.1124 52.3967Z" fill="#99DFF9"/>
</svg>
